# xmcd
#
# Track frame offsets:
#	150
#	17498
#	38575
#	54131
#	73731
#	89773
#	106914
#	121011
#	134355
#	152371
#	167659
#	182846
#	205372
#	221300
#	238675
#
# Disc length: 3425 seconds
#
# Revision: 0
# Processed by: cddbd v1.5.2PL0 Copyright (c) Steve Scherf et al.
# Submitted via: audiograbber 1.83.01
#
DISCID=c00d5f0f
DTITLE=Patricia Kaas - Sexe Fort
DYEAR=2003
DGENRE=Chanson
TTITLE0=Ou Sont Les Hommes
TTITLE1=L'abbe Caillou
TTITLE2=Je Ne Veux Plus Te Pardonner
TTITLE3=La Nuit Est Mauve
TTITLE4=C'est Les Femmes Qui Menent La Danse
TTITLE5=On Pourrait
TTITLE6=J'en Tremblerai Encore
TTITLE7=Je T'aime Et Je Ne T'aime Plus
TTITLE8=C'est La Faute A La Vie
TTITLE9=Je Le Garde Pour Toi
TTITLE10=Ma Blessure
TTITLE11=Des Regrets
TTITLE12=Tu Pourras Dire
TTITLE13=Peut-Etre Que Peut-Etre
TTITLE14=Une Question De Temps
EXTD=
EXTT0=
EXTT1=
EXTT2=
EXTT3=
EXTT4=
EXTT5=
EXTT6=
EXTT7=
EXTT8=
EXTT9=
EXTT10=
EXTT11=
EXTT12=
EXTT13=
EXTT14=
PLAYORDER=
